<mxfile host="app.diagrams.net" modified="2022-05-16T11:07:34.917Z" agent="5.0 (Macintosh; Intel Mac OS X 10_15_7) AppleWebKit/537.36 (KHTML, like Gecko) Chrome/96.0.4664.110 Whale/3.12.129.46 Safari/537.36" etag="uqaKhXdjiHzSQKQwV2SE" version="18.0.4" type="github" pages="6">
  <diagram id="C5RBs43oDa-KdzZeNtuy" name="메인 페이지">
    <mxGraphModel dx="968" dy="994" grid="1" gridSize="10" guides="1" tooltips="1" connect="1" arrows="1" fold="1" page="1" pageScale="1" pageWidth="827" pageHeight="1169" math="0" shadow="0">
      <root>
        <mxCell id="WIyWlLk6GJQsqaUBKTNV-0" />
        <mxCell id="WIyWlLk6GJQsqaUBKTNV-1" parent="WIyWlLk6GJQsqaUBKTNV-0" />
        <mxCell id="WIyWlLk6GJQsqaUBKTNV-2" value="" style="rounded=0;html=1;jettySize=auto;orthogonalLoop=1;fontSize=11;endArrow=block;endFill=0;endSize=8;strokeWidth=1;shadow=0;labelBackgroundColor=none;edgeStyle=orthogonalEdgeStyle;" parent="WIyWlLk6GJQsqaUBKTNV-1" source="WIyWlLk6GJQsqaUBKTNV-3" target="WIyWlLk6GJQsqaUBKTNV-6" edge="1">
          <mxGeometry relative="1" as="geometry" />
        </mxCell>
        <mxCell id="WIyWlLk6GJQsqaUBKTNV-3" value="앱 처음 켜기" style="rounded=1;whiteSpace=wrap;html=1;fontSize=12;glass=0;strokeWidth=1;shadow=0;" parent="WIyWlLk6GJQsqaUBKTNV-1" vertex="1">
          <mxGeometry x="200" y="120" width="120" height="40" as="geometry" />
        </mxCell>
        <mxCell id="WIyWlLk6GJQsqaUBKTNV-4" value="No" style="rounded=0;html=1;jettySize=auto;orthogonalLoop=1;fontSize=11;endArrow=block;endFill=0;endSize=8;strokeWidth=1;shadow=0;labelBackgroundColor=none;edgeStyle=orthogonalEdgeStyle;entryX=0.5;entryY=0;entryDx=0;entryDy=0;" parent="WIyWlLk6GJQsqaUBKTNV-1" source="WIyWlLk6GJQsqaUBKTNV-6" target="2xkAwa8HTgMHsSk2tXgx-1" edge="1">
          <mxGeometry y="20" relative="1" as="geometry">
            <mxPoint as="offset" />
            <mxPoint x="260" y="310" as="targetPoint" />
          </mxGeometry>
        </mxCell>
        <mxCell id="WIyWlLk6GJQsqaUBKTNV-5" value="Yes" style="edgeStyle=orthogonalEdgeStyle;rounded=0;html=1;jettySize=auto;orthogonalLoop=1;fontSize=11;endArrow=block;endFill=0;endSize=8;strokeWidth=1;shadow=0;labelBackgroundColor=none;" parent="WIyWlLk6GJQsqaUBKTNV-1" source="WIyWlLk6GJQsqaUBKTNV-6" target="WIyWlLk6GJQsqaUBKTNV-7" edge="1">
          <mxGeometry y="10" relative="1" as="geometry">
            <mxPoint as="offset" />
          </mxGeometry>
        </mxCell>
        <mxCell id="WIyWlLk6GJQsqaUBKTNV-6" value="로그인이 &lt;br&gt;되어있는가?" style="rhombus;whiteSpace=wrap;html=1;shadow=0;fontFamily=Helvetica;fontSize=12;align=center;strokeWidth=1;spacing=6;spacingTop=-4;" parent="WIyWlLk6GJQsqaUBKTNV-1" vertex="1">
          <mxGeometry x="210" y="200" width="100" height="80" as="geometry" />
        </mxCell>
        <mxCell id="WIyWlLk6GJQsqaUBKTNV-7" value="네비게이션을 통해&lt;br&gt;다른 페이지로 이동" style="rounded=1;whiteSpace=wrap;html=1;fontSize=12;glass=0;strokeWidth=1;shadow=0;" parent="WIyWlLk6GJQsqaUBKTNV-1" vertex="1">
          <mxGeometry x="360" y="220" width="120" height="40" as="geometry" />
        </mxCell>
        <mxCell id="WIyWlLk6GJQsqaUBKTNV-8" value="No" style="rounded=0;html=1;jettySize=auto;orthogonalLoop=1;fontSize=11;endArrow=block;endFill=0;endSize=8;strokeWidth=1;shadow=0;labelBackgroundColor=none;edgeStyle=orthogonalEdgeStyle;" parent="WIyWlLk6GJQsqaUBKTNV-1" source="WIyWlLk6GJQsqaUBKTNV-10" target="WIyWlLk6GJQsqaUBKTNV-11" edge="1">
          <mxGeometry x="0.3333" y="20" relative="1" as="geometry">
            <mxPoint as="offset" />
          </mxGeometry>
        </mxCell>
        <mxCell id="TLVHUFIP5C9zybmoT3AE-4" style="edgeStyle=orthogonalEdgeStyle;rounded=0;orthogonalLoop=1;jettySize=auto;html=1;exitX=0;exitY=0.5;exitDx=0;exitDy=0;entryX=0;entryY=0.5;entryDx=0;entryDy=0;endArrow=block;endFill=0;endSize=8;" edge="1" parent="WIyWlLk6GJQsqaUBKTNV-1" source="WIyWlLk6GJQsqaUBKTNV-10" target="WIyWlLk6GJQsqaUBKTNV-3">
          <mxGeometry relative="1" as="geometry">
            <Array as="points">
              <mxPoint x="160" y="440" />
              <mxPoint x="160" y="140" />
            </Array>
          </mxGeometry>
        </mxCell>
        <mxCell id="evQ_pMqq1Nc-0Edl0Rth-8" value="Yes" style="edgeLabel;html=1;align=center;verticalAlign=middle;resizable=0;points=[];" vertex="1" connectable="0" parent="TLVHUFIP5C9zybmoT3AE-4">
          <mxGeometry x="-0.0667" y="-2" relative="1" as="geometry">
            <mxPoint x="-22" y="-18" as="offset" />
          </mxGeometry>
        </mxCell>
        <mxCell id="WIyWlLk6GJQsqaUBKTNV-10" value="사용자 계정이&amp;nbsp;&lt;br&gt;존재하는가?" style="rhombus;whiteSpace=wrap;html=1;shadow=0;fontFamily=Helvetica;fontSize=12;align=center;strokeWidth=1;spacing=6;spacingTop=-4;" parent="WIyWlLk6GJQsqaUBKTNV-1" vertex="1">
          <mxGeometry x="210" y="400" width="100" height="80" as="geometry" />
        </mxCell>
        <mxCell id="WIyWlLk6GJQsqaUBKTNV-11" value="회원가입 페이지" style="rounded=1;whiteSpace=wrap;html=1;fontSize=12;glass=0;strokeWidth=1;shadow=0;" parent="WIyWlLk6GJQsqaUBKTNV-1" vertex="1">
          <mxGeometry x="200" y="530" width="120" height="40" as="geometry" />
        </mxCell>
        <mxCell id="2xkAwa8HTgMHsSk2tXgx-3" value="" style="edgeStyle=orthogonalEdgeStyle;rounded=0;orthogonalLoop=1;jettySize=auto;html=1;endArrow=block;endFill=0;endSize=8;" parent="WIyWlLk6GJQsqaUBKTNV-1" source="2xkAwa8HTgMHsSk2tXgx-1" target="WIyWlLk6GJQsqaUBKTNV-10" edge="1">
          <mxGeometry relative="1" as="geometry" />
        </mxCell>
        <mxCell id="2xkAwa8HTgMHsSk2tXgx-1" value="로그인 페이지" style="rounded=1;whiteSpace=wrap;html=1;" parent="WIyWlLk6GJQsqaUBKTNV-1" vertex="1">
          <mxGeometry x="200" y="320" width="120" height="40" as="geometry" />
        </mxCell>
      </root>
    </mxGraphModel>
  </diagram>
  <diagram id="oDTKHBYF9CjuRPV_wIWu" name="식물 구매 페이지">
    <mxGraphModel dx="968" dy="994" grid="1" gridSize="10" guides="1" tooltips="1" connect="1" arrows="1" fold="1" page="1" pageScale="1" pageWidth="827" pageHeight="1169" math="0" shadow="0">
      <root>
        <mxCell id="0" />
        <mxCell id="1" parent="0" />
        <mxCell id="GZ9RXzgId8T2_DMuncNv-2" value="" style="edgeStyle=orthogonalEdgeStyle;rounded=0;orthogonalLoop=1;jettySize=auto;html=1;endArrow=block;endFill=0;endSize=8;" edge="1" parent="1" source="2-qUmga1zoLbRbnCdZnu-1" target="GZ9RXzgId8T2_DMuncNv-1">
          <mxGeometry relative="1" as="geometry" />
        </mxCell>
        <mxCell id="GZ9RXzgId8T2_DMuncNv-3" style="edgeStyle=orthogonalEdgeStyle;rounded=0;orthogonalLoop=1;jettySize=auto;html=1;endArrow=block;endFill=0;endSize=8;entryX=0.5;entryY=0;entryDx=0;entryDy=0;" edge="1" parent="1" source="2-qUmga1zoLbRbnCdZnu-1" target="GZ9RXzgId8T2_DMuncNv-4">
          <mxGeometry relative="1" as="geometry">
            <mxPoint x="320" y="210" as="targetPoint" />
          </mxGeometry>
        </mxCell>
        <mxCell id="2-qUmga1zoLbRbnCdZnu-1" value="구매 페이지" style="rounded=1;whiteSpace=wrap;html=1;" vertex="1" parent="1">
          <mxGeometry x="200" y="120" width="120" height="40" as="geometry" />
        </mxCell>
        <mxCell id="GZ9RXzgId8T2_DMuncNv-7" value="" style="edgeStyle=orthogonalEdgeStyle;rounded=0;orthogonalLoop=1;jettySize=auto;html=1;endArrow=block;endFill=0;endSize=8;" edge="1" parent="1" source="GZ9RXzgId8T2_DMuncNv-1" target="GZ9RXzgId8T2_DMuncNv-6">
          <mxGeometry relative="1" as="geometry" />
        </mxCell>
        <mxCell id="GZ9RXzgId8T2_DMuncNv-1" value="물품 종류 선택" style="rounded=1;whiteSpace=wrap;html=1;" vertex="1" parent="1">
          <mxGeometry x="120" y="200" width="120" height="40" as="geometry" />
        </mxCell>
        <mxCell id="GZ9RXzgId8T2_DMuncNv-10" style="edgeStyle=orthogonalEdgeStyle;rounded=0;orthogonalLoop=1;jettySize=auto;html=1;exitX=0.5;exitY=1;exitDx=0;exitDy=0;entryX=0.5;entryY=0;entryDx=0;entryDy=0;endArrow=block;endFill=0;endSize=8;" edge="1" parent="1" source="GZ9RXzgId8T2_DMuncNv-4" target="GZ9RXzgId8T2_DMuncNv-8">
          <mxGeometry relative="1" as="geometry">
            <Array as="points">
              <mxPoint x="340" y="340" />
              <mxPoint x="260" y="340" />
            </Array>
          </mxGeometry>
        </mxCell>
        <mxCell id="GZ9RXzgId8T2_DMuncNv-4" value="물품 직접 선택" style="rounded=1;whiteSpace=wrap;html=1;" vertex="1" parent="1">
          <mxGeometry x="280" y="200" width="120" height="40" as="geometry" />
        </mxCell>
        <mxCell id="GZ9RXzgId8T2_DMuncNv-9" value="" style="edgeStyle=orthogonalEdgeStyle;rounded=0;orthogonalLoop=1;jettySize=auto;html=1;endArrow=block;endFill=0;endSize=8;" edge="1" parent="1" source="GZ9RXzgId8T2_DMuncNv-6" target="GZ9RXzgId8T2_DMuncNv-8">
          <mxGeometry relative="1" as="geometry" />
        </mxCell>
        <mxCell id="GZ9RXzgId8T2_DMuncNv-6" value="세부 종류 선택" style="rounded=1;whiteSpace=wrap;html=1;" vertex="1" parent="1">
          <mxGeometry x="120" y="280" width="120" height="40" as="geometry" />
        </mxCell>
        <mxCell id="_7WPd1eZbgNDk28E6osv-6" value="" style="edgeStyle=orthogonalEdgeStyle;rounded=0;orthogonalLoop=1;jettySize=auto;html=1;endArrow=block;endFill=0;endSize=8;" edge="1" parent="1" source="GZ9RXzgId8T2_DMuncNv-8" target="_7WPd1eZbgNDk28E6osv-5">
          <mxGeometry relative="1" as="geometry" />
        </mxCell>
        <mxCell id="GZ9RXzgId8T2_DMuncNv-8" value="해당 물품 정보 출력" style="rounded=1;whiteSpace=wrap;html=1;" vertex="1" parent="1">
          <mxGeometry x="200" y="360" width="120" height="40" as="geometry" />
        </mxCell>
        <mxCell id="_7WPd1eZbgNDk28E6osv-9" style="edgeStyle=orthogonalEdgeStyle;rounded=0;orthogonalLoop=1;jettySize=auto;html=1;exitX=0.5;exitY=1;exitDx=0;exitDy=0;entryX=0.5;entryY=0;entryDx=0;entryDy=0;endArrow=block;endFill=0;endSize=8;" edge="1" parent="1" source="_7WPd1eZbgNDk28E6osv-5" target="_7WPd1eZbgNDk28E6osv-7">
          <mxGeometry relative="1" as="geometry" />
        </mxCell>
        <mxCell id="_7WPd1eZbgNDk28E6osv-10" style="edgeStyle=orthogonalEdgeStyle;rounded=0;orthogonalLoop=1;jettySize=auto;html=1;exitX=0.5;exitY=1;exitDx=0;exitDy=0;entryX=0.5;entryY=0;entryDx=0;entryDy=0;endArrow=block;endFill=0;endSize=8;" edge="1" parent="1" source="_7WPd1eZbgNDk28E6osv-5" target="_7WPd1eZbgNDk28E6osv-8">
          <mxGeometry relative="1" as="geometry" />
        </mxCell>
        <mxCell id="oOCasmnb8hrYTDNxffxm-1" value="Yes" style="edgeLabel;html=1;align=center;verticalAlign=middle;resizable=0;points=[];" vertex="1" connectable="0" parent="_7WPd1eZbgNDk28E6osv-10">
          <mxGeometry x="-0.85" y="1" relative="1" as="geometry">
            <mxPoint x="-1" y="21" as="offset" />
          </mxGeometry>
        </mxCell>
        <mxCell id="_7WPd1eZbgNDk28E6osv-15" style="edgeStyle=orthogonalEdgeStyle;rounded=0;orthogonalLoop=1;jettySize=auto;html=1;exitX=0;exitY=0.5;exitDx=0;exitDy=0;entryX=0;entryY=0.5;entryDx=0;entryDy=0;endArrow=block;endFill=0;endSize=8;" edge="1" parent="1" source="_7WPd1eZbgNDk28E6osv-5" target="GZ9RXzgId8T2_DMuncNv-8">
          <mxGeometry relative="1" as="geometry">
            <Array as="points">
              <mxPoint x="160" y="480" />
              <mxPoint x="160" y="380" />
            </Array>
          </mxGeometry>
        </mxCell>
        <mxCell id="_7WPd1eZbgNDk28E6osv-16" value="No" style="edgeLabel;html=1;align=center;verticalAlign=middle;resizable=0;points=[];" vertex="1" connectable="0" parent="_7WPd1eZbgNDk28E6osv-15">
          <mxGeometry x="-0.1263" relative="1" as="geometry">
            <mxPoint x="-20" y="-17" as="offset" />
          </mxGeometry>
        </mxCell>
        <mxCell id="_7WPd1eZbgNDk28E6osv-5" value="구매 의향이&amp;nbsp;&lt;br&gt;있는가?" style="rhombus;whiteSpace=wrap;html=1;rounded=1;" vertex="1" parent="1">
          <mxGeometry x="210" y="440" width="100" height="80" as="geometry" />
        </mxCell>
        <mxCell id="_7WPd1eZbgNDk28E6osv-12" value="" style="edgeStyle=orthogonalEdgeStyle;rounded=0;orthogonalLoop=1;jettySize=auto;html=1;endArrow=block;endFill=0;endSize=8;" edge="1" parent="1" source="_7WPd1eZbgNDk28E6osv-7" target="_7WPd1eZbgNDk28E6osv-11">
          <mxGeometry relative="1" as="geometry" />
        </mxCell>
        <mxCell id="_7WPd1eZbgNDk28E6osv-7" value="결제 페이지" style="rounded=1;whiteSpace=wrap;html=1;" vertex="1" parent="1">
          <mxGeometry x="120" y="560" width="120" height="40" as="geometry" />
        </mxCell>
        <mxCell id="_7WPd1eZbgNDk28E6osv-8" value="장바구니&lt;br&gt;(마이페이지 확인 O)" style="rounded=1;whiteSpace=wrap;html=1;" vertex="1" parent="1">
          <mxGeometry x="280" y="560" width="120" height="40" as="geometry" />
        </mxCell>
        <mxCell id="_7WPd1eZbgNDk28E6osv-14" value="" style="edgeStyle=orthogonalEdgeStyle;rounded=0;orthogonalLoop=1;jettySize=auto;html=1;endArrow=block;endFill=0;endSize=8;" edge="1" parent="1" source="_7WPd1eZbgNDk28E6osv-11" target="_7WPd1eZbgNDk28E6osv-13">
          <mxGeometry relative="1" as="geometry" />
        </mxCell>
        <mxCell id="_7WPd1eZbgNDk28E6osv-11" value="결제 정보 입력" style="rounded=1;whiteSpace=wrap;html=1;" vertex="1" parent="1">
          <mxGeometry x="120" y="640" width="120" height="40" as="geometry" />
        </mxCell>
        <mxCell id="_7WPd1eZbgNDk28E6osv-13" value="결제 완료&lt;br&gt;(마이페이지 확인 O)" style="rounded=1;whiteSpace=wrap;html=1;" vertex="1" parent="1">
          <mxGeometry x="120" y="720" width="120" height="40" as="geometry" />
        </mxCell>
      </root>
    </mxGraphModel>
  </diagram>
  <diagram id="PoeFSGQP3gWe6JsxjKrG" name="식물 판매 페이지">
    <mxGraphModel dx="968" dy="994" grid="1" gridSize="10" guides="1" tooltips="1" connect="1" arrows="1" fold="1" page="1" pageScale="1" pageWidth="827" pageHeight="1169" math="0" shadow="0">
      <root>
        <mxCell id="0" />
        <mxCell id="1" parent="0" />
        <mxCell id="azMKZJ2cHj6LYxvBU8qA-2" value="" style="edgeStyle=orthogonalEdgeStyle;rounded=0;orthogonalLoop=1;jettySize=auto;html=1;endArrow=block;endFill=0;endSize=8;" edge="1" parent="1" source="Orivq2-BfMDEm1u5as4S-1" target="azMKZJ2cHj6LYxvBU8qA-1">
          <mxGeometry relative="1" as="geometry" />
        </mxCell>
        <mxCell id="Orivq2-BfMDEm1u5as4S-1" value="구매 페이지" style="rounded=1;whiteSpace=wrap;html=1;" vertex="1" parent="1">
          <mxGeometry x="200" y="120" width="120" height="40" as="geometry" />
        </mxCell>
        <mxCell id="azMKZJ2cHj6LYxvBU8qA-4" value="" style="edgeStyle=orthogonalEdgeStyle;rounded=0;orthogonalLoop=1;jettySize=auto;html=1;endArrow=block;endFill=0;endSize=8;" edge="1" parent="1" source="azMKZJ2cHj6LYxvBU8qA-1" target="azMKZJ2cHj6LYxvBU8qA-3">
          <mxGeometry relative="1" as="geometry" />
        </mxCell>
        <mxCell id="azMKZJ2cHj6LYxvBU8qA-1" value="상품 등록 버튼 클릭&lt;br&gt;(구매 페이지의 + 버튼)" style="rounded=1;whiteSpace=wrap;html=1;" vertex="1" parent="1">
          <mxGeometry x="200" y="200" width="120" height="40" as="geometry" />
        </mxCell>
        <mxCell id="HQgkdHU-rmNsLyYArUgF-2" value="" style="edgeStyle=orthogonalEdgeStyle;rounded=0;orthogonalLoop=1;jettySize=auto;html=1;endArrow=block;endFill=0;endSize=8;" edge="1" parent="1" source="azMKZJ2cHj6LYxvBU8qA-3" target="HQgkdHU-rmNsLyYArUgF-1">
          <mxGeometry relative="1" as="geometry" />
        </mxCell>
        <mxCell id="azMKZJ2cHj6LYxvBU8qA-3" value="거래 설정 페이지" style="rounded=1;whiteSpace=wrap;html=1;" vertex="1" parent="1">
          <mxGeometry x="200" y="280" width="120" height="40" as="geometry" />
        </mxCell>
        <mxCell id="HQgkdHU-rmNsLyYArUgF-4" value="" style="edgeStyle=orthogonalEdgeStyle;rounded=0;orthogonalLoop=1;jettySize=auto;html=1;endArrow=block;endFill=0;endSize=8;" edge="1" parent="1" source="HQgkdHU-rmNsLyYArUgF-1" target="HQgkdHU-rmNsLyYArUgF-3">
          <mxGeometry relative="1" as="geometry" />
        </mxCell>
        <mxCell id="HQgkdHU-rmNsLyYArUgF-1" value="가이드라인 설정" style="rounded=1;whiteSpace=wrap;html=1;" vertex="1" parent="1">
          <mxGeometry x="200" y="360" width="120" height="40" as="geometry" />
        </mxCell>
        <mxCell id="HQgkdHU-rmNsLyYArUgF-6" value="" style="edgeStyle=orthogonalEdgeStyle;rounded=0;orthogonalLoop=1;jettySize=auto;html=1;endArrow=block;endFill=0;endSize=8;" edge="1" parent="1" source="HQgkdHU-rmNsLyYArUgF-3" target="HQgkdHU-rmNsLyYArUgF-5">
          <mxGeometry relative="1" as="geometry" />
        </mxCell>
        <mxCell id="HQgkdHU-rmNsLyYArUgF-9" value="Yes" style="edgeLabel;html=1;align=center;verticalAlign=middle;resizable=0;points=[];" vertex="1" connectable="0" parent="HQgkdHU-rmNsLyYArUgF-6">
          <mxGeometry x="-0.1" y="1" relative="1" as="geometry">
            <mxPoint x="19" as="offset" />
          </mxGeometry>
        </mxCell>
        <mxCell id="j5ycJaIL8nIeWLuPe-aK-2" value="" style="edgeStyle=orthogonalEdgeStyle;rounded=0;orthogonalLoop=1;jettySize=auto;html=1;endArrow=block;endFill=0;endSize=8;" edge="1" parent="1" source="HQgkdHU-rmNsLyYArUgF-3" target="j5ycJaIL8nIeWLuPe-aK-1">
          <mxGeometry relative="1" as="geometry" />
        </mxCell>
        <mxCell id="j5ycJaIL8nIeWLuPe-aK-3" value="No" style="edgeLabel;html=1;align=center;verticalAlign=middle;resizable=0;points=[];" vertex="1" connectable="0" parent="j5ycJaIL8nIeWLuPe-aK-2">
          <mxGeometry x="-0.2" y="-1" relative="1" as="geometry">
            <mxPoint y="-11" as="offset" />
          </mxGeometry>
        </mxCell>
        <mxCell id="HQgkdHU-rmNsLyYArUgF-3" value="가이드라인이&lt;br&gt;적절한가?" style="rhombus;whiteSpace=wrap;html=1;rounded=1;" vertex="1" parent="1">
          <mxGeometry x="210" y="440" width="100" height="80" as="geometry" />
        </mxCell>
        <mxCell id="HQgkdHU-rmNsLyYArUgF-8" value="" style="edgeStyle=orthogonalEdgeStyle;rounded=0;orthogonalLoop=1;jettySize=auto;html=1;endArrow=block;endFill=0;endSize=8;" edge="1" parent="1" source="HQgkdHU-rmNsLyYArUgF-5" target="HQgkdHU-rmNsLyYArUgF-7">
          <mxGeometry relative="1" as="geometry" />
        </mxCell>
        <mxCell id="HQgkdHU-rmNsLyYArUgF-5" value="판매글 등록 버튼 클릭" style="whiteSpace=wrap;html=1;rounded=1;" vertex="1" parent="1">
          <mxGeometry x="200" y="560" width="120" height="40" as="geometry" />
        </mxCell>
        <mxCell id="j5ycJaIL8nIeWLuPe-aK-8" value="" style="edgeStyle=orthogonalEdgeStyle;rounded=0;orthogonalLoop=1;jettySize=auto;html=1;endArrow=block;endFill=0;endSize=8;" edge="1" parent="1" source="HQgkdHU-rmNsLyYArUgF-7" target="j5ycJaIL8nIeWLuPe-aK-7">
          <mxGeometry relative="1" as="geometry" />
        </mxCell>
        <mxCell id="HQgkdHU-rmNsLyYArUgF-7" value="게시글 등록 완료&lt;br&gt;(판매중, 완료 내역)" style="whiteSpace=wrap;html=1;rounded=1;" vertex="1" parent="1">
          <mxGeometry x="200" y="640" width="120" height="40" as="geometry" />
        </mxCell>
        <mxCell id="j5ycJaIL8nIeWLuPe-aK-5" value="" style="edgeStyle=orthogonalEdgeStyle;rounded=0;orthogonalLoop=1;jettySize=auto;html=1;endArrow=block;endFill=0;endSize=8;" edge="1" parent="1" source="j5ycJaIL8nIeWLuPe-aK-1" target="j5ycJaIL8nIeWLuPe-aK-4">
          <mxGeometry relative="1" as="geometry" />
        </mxCell>
        <mxCell id="j5ycJaIL8nIeWLuPe-aK-1" value="게시글 검증" style="whiteSpace=wrap;html=1;rounded=1;" vertex="1" parent="1">
          <mxGeometry x="360" y="460" width="120" height="40" as="geometry" />
        </mxCell>
        <mxCell id="j5ycJaIL8nIeWLuPe-aK-6" style="edgeStyle=orthogonalEdgeStyle;rounded=0;orthogonalLoop=1;jettySize=auto;html=1;exitX=1;exitY=0.5;exitDx=0;exitDy=0;entryX=1;entryY=0.5;entryDx=0;entryDy=0;endArrow=block;endFill=0;endSize=8;" edge="1" parent="1" source="j5ycJaIL8nIeWLuPe-aK-4" target="HQgkdHU-rmNsLyYArUgF-1">
          <mxGeometry relative="1" as="geometry" />
        </mxCell>
        <mxCell id="j5ycJaIL8nIeWLuPe-aK-4" value="가이드라인 재작성" style="whiteSpace=wrap;html=1;rounded=1;" vertex="1" parent="1">
          <mxGeometry x="520" y="460" width="120" height="40" as="geometry" />
        </mxCell>
        <mxCell id="j5ycJaIL8nIeWLuPe-aK-7" value="마이페이지에서 확인" style="whiteSpace=wrap;html=1;rounded=1;" vertex="1" parent="1">
          <mxGeometry x="200" y="720" width="120" height="40" as="geometry" />
        </mxCell>
      </root>
    </mxGraphModel>
  </diagram>
  <diagram id="0Qu2bqM3ZP0Hfqt-f_2R" name="경매 구매 페이지">
    <mxGraphModel dx="968" dy="994" grid="1" gridSize="10" guides="1" tooltips="1" connect="1" arrows="1" fold="1" page="1" pageScale="1" pageWidth="827" pageHeight="1169" math="0" shadow="0">
      <root>
        <mxCell id="0" />
        <mxCell id="1" parent="0" />
        <mxCell id="4LsOsaFE_U8WdSnjimtb-1" value="" style="edgeStyle=orthogonalEdgeStyle;rounded=0;orthogonalLoop=1;jettySize=auto;html=1;endArrow=block;endFill=0;endSize=8;" edge="1" parent="1" source="4LsOsaFE_U8WdSnjimtb-3" target="4LsOsaFE_U8WdSnjimtb-5">
          <mxGeometry relative="1" as="geometry" />
        </mxCell>
        <mxCell id="4LsOsaFE_U8WdSnjimtb-2" style="edgeStyle=orthogonalEdgeStyle;rounded=0;orthogonalLoop=1;jettySize=auto;html=1;endArrow=block;endFill=0;endSize=8;entryX=0.5;entryY=0;entryDx=0;entryDy=0;" edge="1" parent="1" source="4LsOsaFE_U8WdSnjimtb-3" target="4LsOsaFE_U8WdSnjimtb-7">
          <mxGeometry relative="1" as="geometry">
            <mxPoint x="320" y="210" as="targetPoint" />
          </mxGeometry>
        </mxCell>
        <mxCell id="4LsOsaFE_U8WdSnjimtb-3" value="경매 페이지" style="rounded=1;whiteSpace=wrap;html=1;" vertex="1" parent="1">
          <mxGeometry x="200" y="120" width="120" height="40" as="geometry" />
        </mxCell>
        <mxCell id="4LsOsaFE_U8WdSnjimtb-4" value="" style="edgeStyle=orthogonalEdgeStyle;rounded=0;orthogonalLoop=1;jettySize=auto;html=1;endArrow=block;endFill=0;endSize=8;" edge="1" parent="1" source="4LsOsaFE_U8WdSnjimtb-5" target="4LsOsaFE_U8WdSnjimtb-9">
          <mxGeometry relative="1" as="geometry" />
        </mxCell>
        <mxCell id="4LsOsaFE_U8WdSnjimtb-5" value="식물 검색" style="rounded=1;whiteSpace=wrap;html=1;" vertex="1" parent="1">
          <mxGeometry x="120" y="200" width="120" height="40" as="geometry" />
        </mxCell>
        <mxCell id="4LsOsaFE_U8WdSnjimtb-6" style="edgeStyle=orthogonalEdgeStyle;rounded=0;orthogonalLoop=1;jettySize=auto;html=1;exitX=0.5;exitY=1;exitDx=0;exitDy=0;entryX=0.5;entryY=0;entryDx=0;entryDy=0;endArrow=block;endFill=0;endSize=8;" edge="1" parent="1" source="4LsOsaFE_U8WdSnjimtb-7" target="4LsOsaFE_U8WdSnjimtb-11">
          <mxGeometry relative="1" as="geometry">
            <Array as="points">
              <mxPoint x="340" y="340" />
              <mxPoint x="260" y="340" />
            </Array>
          </mxGeometry>
        </mxCell>
        <mxCell id="4LsOsaFE_U8WdSnjimtb-7" value="경매 페이지 메인화면의&lt;br&gt;상품 선택" style="rounded=1;whiteSpace=wrap;html=1;" vertex="1" parent="1">
          <mxGeometry x="280" y="200" width="120" height="40" as="geometry" />
        </mxCell>
        <mxCell id="4LsOsaFE_U8WdSnjimtb-8" value="" style="edgeStyle=orthogonalEdgeStyle;rounded=0;orthogonalLoop=1;jettySize=auto;html=1;endArrow=block;endFill=0;endSize=8;" edge="1" parent="1" source="4LsOsaFE_U8WdSnjimtb-9" target="4LsOsaFE_U8WdSnjimtb-11">
          <mxGeometry relative="1" as="geometry" />
        </mxCell>
        <mxCell id="4LsOsaFE_U8WdSnjimtb-9" value="검색 결과에서 상품 선택" style="rounded=1;whiteSpace=wrap;html=1;" vertex="1" parent="1">
          <mxGeometry x="120" y="280" width="120" height="40" as="geometry" />
        </mxCell>
        <mxCell id="4LsOsaFE_U8WdSnjimtb-10" value="" style="edgeStyle=orthogonalEdgeStyle;rounded=0;orthogonalLoop=1;jettySize=auto;html=1;endArrow=block;endFill=0;endSize=8;" edge="1" parent="1" source="4LsOsaFE_U8WdSnjimtb-11" target="4LsOsaFE_U8WdSnjimtb-17">
          <mxGeometry relative="1" as="geometry" />
        </mxCell>
        <mxCell id="4LsOsaFE_U8WdSnjimtb-11" value="해당 경매 상품 &lt;br&gt;정보 출력" style="rounded=1;whiteSpace=wrap;html=1;" vertex="1" parent="1">
          <mxGeometry x="200" y="360" width="120" height="40" as="geometry" />
        </mxCell>
        <mxCell id="4LsOsaFE_U8WdSnjimtb-12" style="edgeStyle=orthogonalEdgeStyle;rounded=0;orthogonalLoop=1;jettySize=auto;html=1;exitX=0.5;exitY=1;exitDx=0;exitDy=0;entryX=0.5;entryY=0;entryDx=0;entryDy=0;endArrow=block;endFill=0;endSize=8;" edge="1" parent="1" source="4LsOsaFE_U8WdSnjimtb-17" target="4LsOsaFE_U8WdSnjimtb-19">
          <mxGeometry relative="1" as="geometry" />
        </mxCell>
        <mxCell id="4LsOsaFE_U8WdSnjimtb-13" style="edgeStyle=orthogonalEdgeStyle;rounded=0;orthogonalLoop=1;jettySize=auto;html=1;exitX=0.5;exitY=1;exitDx=0;exitDy=0;entryX=0.5;entryY=0;entryDx=0;entryDy=0;endArrow=block;endFill=0;endSize=8;" edge="1" parent="1" source="4LsOsaFE_U8WdSnjimtb-17" target="4LsOsaFE_U8WdSnjimtb-20">
          <mxGeometry relative="1" as="geometry" />
        </mxCell>
        <mxCell id="4LsOsaFE_U8WdSnjimtb-14" value="Yes" style="edgeLabel;html=1;align=center;verticalAlign=middle;resizable=0;points=[];" vertex="1" connectable="0" parent="4LsOsaFE_U8WdSnjimtb-13">
          <mxGeometry x="-0.85" y="1" relative="1" as="geometry">
            <mxPoint x="-1" y="21" as="offset" />
          </mxGeometry>
        </mxCell>
        <mxCell id="4LsOsaFE_U8WdSnjimtb-15" style="edgeStyle=orthogonalEdgeStyle;rounded=0;orthogonalLoop=1;jettySize=auto;html=1;exitX=0;exitY=0.5;exitDx=0;exitDy=0;entryX=0;entryY=0.5;entryDx=0;entryDy=0;endArrow=block;endFill=0;endSize=8;" edge="1" parent="1" source="4LsOsaFE_U8WdSnjimtb-17" target="4LsOsaFE_U8WdSnjimtb-11">
          <mxGeometry relative="1" as="geometry">
            <Array as="points">
              <mxPoint x="160" y="480" />
              <mxPoint x="160" y="380" />
            </Array>
          </mxGeometry>
        </mxCell>
        <mxCell id="4LsOsaFE_U8WdSnjimtb-16" value="No" style="edgeLabel;html=1;align=center;verticalAlign=middle;resizable=0;points=[];" vertex="1" connectable="0" parent="4LsOsaFE_U8WdSnjimtb-15">
          <mxGeometry x="-0.1263" relative="1" as="geometry">
            <mxPoint x="-20" y="-17" as="offset" />
          </mxGeometry>
        </mxCell>
        <mxCell id="4LsOsaFE_U8WdSnjimtb-17" value="입찰 의향이&amp;nbsp;&lt;br&gt;있는가?" style="rhombus;whiteSpace=wrap;html=1;rounded=1;" vertex="1" parent="1">
          <mxGeometry x="210" y="440" width="100" height="80" as="geometry" />
        </mxCell>
        <mxCell id="4LsOsaFE_U8WdSnjimtb-18" value="" style="edgeStyle=orthogonalEdgeStyle;rounded=0;orthogonalLoop=1;jettySize=auto;html=1;endArrow=block;endFill=0;endSize=8;" edge="1" parent="1" source="4LsOsaFE_U8WdSnjimtb-19" target="4LsOsaFE_U8WdSnjimtb-22">
          <mxGeometry relative="1" as="geometry" />
        </mxCell>
        <mxCell id="4LsOsaFE_U8WdSnjimtb-19" value="입찰 페이지&lt;br&gt;(입찰금액 적기)" style="rounded=1;whiteSpace=wrap;html=1;" vertex="1" parent="1">
          <mxGeometry x="120" y="560" width="120" height="40" as="geometry" />
        </mxCell>
        <mxCell id="4LsOsaFE_U8WdSnjimtb-20" value="장바구니&lt;br&gt;(마이페이지 확인 O)" style="rounded=1;whiteSpace=wrap;html=1;" vertex="1" parent="1">
          <mxGeometry x="280" y="560" width="120" height="40" as="geometry" />
        </mxCell>
        <mxCell id="4LsOsaFE_U8WdSnjimtb-21" value="" style="edgeStyle=orthogonalEdgeStyle;rounded=0;orthogonalLoop=1;jettySize=auto;html=1;endArrow=block;endFill=0;endSize=8;" edge="1" parent="1" source="4LsOsaFE_U8WdSnjimtb-22" target="4LsOsaFE_U8WdSnjimtb-23">
          <mxGeometry relative="1" as="geometry" />
        </mxCell>
        <mxCell id="4LsOsaFE_U8WdSnjimtb-22" value="마이 페이지" style="rounded=1;whiteSpace=wrap;html=1;" vertex="1" parent="1">
          <mxGeometry x="120" y="640" width="120" height="40" as="geometry" />
        </mxCell>
        <mxCell id="ahCnCh8UkxsBGP4r5AiT-2" value="" style="edgeStyle=orthogonalEdgeStyle;rounded=0;orthogonalLoop=1;jettySize=auto;html=1;endArrow=block;endFill=0;endSize=8;" edge="1" parent="1" source="4LsOsaFE_U8WdSnjimtb-23" target="ahCnCh8UkxsBGP4r5AiT-1">
          <mxGeometry relative="1" as="geometry" />
        </mxCell>
        <mxCell id="4LsOsaFE_U8WdSnjimtb-23" value="입찰한 식물 확인" style="rounded=1;whiteSpace=wrap;html=1;" vertex="1" parent="1">
          <mxGeometry x="120" y="720" width="120" height="40" as="geometry" />
        </mxCell>
        <mxCell id="Ztavy6mWLgoEwIXnSNcf-4" style="edgeStyle=orthogonalEdgeStyle;rounded=0;orthogonalLoop=1;jettySize=auto;html=1;exitX=0.5;exitY=1;exitDx=0;exitDy=0;entryX=0.5;entryY=0;entryDx=0;entryDy=0;endArrow=block;endFill=0;endSize=8;" edge="1" parent="1" source="ahCnCh8UkxsBGP4r5AiT-1" target="Ztavy6mWLgoEwIXnSNcf-2">
          <mxGeometry relative="1" as="geometry" />
        </mxCell>
        <mxCell id="ahCnCh8UkxsBGP4r5AiT-1" value="결제 페이지" style="rounded=1;whiteSpace=wrap;html=1;" vertex="1" parent="1">
          <mxGeometry x="120" y="800" width="120" height="40" as="geometry" />
        </mxCell>
        <mxCell id="Ztavy6mWLgoEwIXnSNcf-1" value="" style="edgeStyle=orthogonalEdgeStyle;rounded=0;orthogonalLoop=1;jettySize=auto;html=1;endArrow=block;endFill=0;endSize=8;" edge="1" parent="1" source="Ztavy6mWLgoEwIXnSNcf-2" target="Ztavy6mWLgoEwIXnSNcf-3">
          <mxGeometry relative="1" as="geometry" />
        </mxCell>
        <mxCell id="Ztavy6mWLgoEwIXnSNcf-2" value="결제 정보 입력" style="rounded=1;whiteSpace=wrap;html=1;" vertex="1" parent="1">
          <mxGeometry x="120" y="880" width="120" height="40" as="geometry" />
        </mxCell>
        <mxCell id="Ztavy6mWLgoEwIXnSNcf-3" value="결제 완료&lt;br&gt;(마이페이지 확인 O)" style="rounded=1;whiteSpace=wrap;html=1;" vertex="1" parent="1">
          <mxGeometry x="120" y="960" width="120" height="40" as="geometry" />
        </mxCell>
      </root>
    </mxGraphModel>
  </diagram>
  <diagram id="zqsEhMNWp-9U8MRaOjCn" name="경매 판매 페이지">
    <mxGraphModel dx="968" dy="994" grid="1" gridSize="10" guides="1" tooltips="1" connect="1" arrows="1" fold="1" page="1" pageScale="1" pageWidth="827" pageHeight="1169" math="0" shadow="0">
      <root>
        <mxCell id="0" />
        <mxCell id="1" parent="0" />
        <mxCell id="1t6ByZAMljNspa1cUEvN-1" value="" style="edgeStyle=orthogonalEdgeStyle;rounded=0;orthogonalLoop=1;jettySize=auto;html=1;endArrow=block;endFill=0;endSize=8;" edge="1" parent="1" source="1t6ByZAMljNspa1cUEvN-2" target="1t6ByZAMljNspa1cUEvN-4">
          <mxGeometry relative="1" as="geometry" />
        </mxCell>
        <mxCell id="1t6ByZAMljNspa1cUEvN-2" value="구매 페이지" style="rounded=1;whiteSpace=wrap;html=1;" vertex="1" parent="1">
          <mxGeometry x="200" y="120" width="120" height="40" as="geometry" />
        </mxCell>
        <mxCell id="1t6ByZAMljNspa1cUEvN-3" value="" style="edgeStyle=orthogonalEdgeStyle;rounded=0;orthogonalLoop=1;jettySize=auto;html=1;endArrow=block;endFill=0;endSize=8;" edge="1" parent="1" source="1t6ByZAMljNspa1cUEvN-4" target="1t6ByZAMljNspa1cUEvN-6">
          <mxGeometry relative="1" as="geometry" />
        </mxCell>
        <mxCell id="1t6ByZAMljNspa1cUEvN-4" value="상품 등록 버튼 클릭&lt;br&gt;(구매 페이지의 + 버튼)" style="rounded=1;whiteSpace=wrap;html=1;" vertex="1" parent="1">
          <mxGeometry x="200" y="200" width="120" height="40" as="geometry" />
        </mxCell>
        <mxCell id="1t6ByZAMljNspa1cUEvN-5" value="" style="edgeStyle=orthogonalEdgeStyle;rounded=0;orthogonalLoop=1;jettySize=auto;html=1;endArrow=block;endFill=0;endSize=8;" edge="1" parent="1" source="1t6ByZAMljNspa1cUEvN-6" target="1t6ByZAMljNspa1cUEvN-8">
          <mxGeometry relative="1" as="geometry" />
        </mxCell>
        <mxCell id="1t6ByZAMljNspa1cUEvN-6" value="주문서 작성" style="rounded=1;whiteSpace=wrap;html=1;" vertex="1" parent="1">
          <mxGeometry x="200" y="280" width="120" height="40" as="geometry" />
        </mxCell>
        <mxCell id="1t6ByZAMljNspa1cUEvN-7" value="" style="edgeStyle=orthogonalEdgeStyle;rounded=0;orthogonalLoop=1;jettySize=auto;html=1;endArrow=block;endFill=0;endSize=8;" edge="1" parent="1" source="1t6ByZAMljNspa1cUEvN-8" target="1t6ByZAMljNspa1cUEvN-13">
          <mxGeometry relative="1" as="geometry" />
        </mxCell>
        <mxCell id="1t6ByZAMljNspa1cUEvN-8" value="검수" style="rounded=1;whiteSpace=wrap;html=1;" vertex="1" parent="1">
          <mxGeometry x="200" y="360" width="120" height="40" as="geometry" />
        </mxCell>
        <mxCell id="1t6ByZAMljNspa1cUEvN-9" value="" style="edgeStyle=orthogonalEdgeStyle;rounded=0;orthogonalLoop=1;jettySize=auto;html=1;endArrow=block;endFill=0;endSize=8;" edge="1" parent="1" source="1t6ByZAMljNspa1cUEvN-13" target="1t6ByZAMljNspa1cUEvN-15">
          <mxGeometry relative="1" as="geometry" />
        </mxCell>
        <mxCell id="1t6ByZAMljNspa1cUEvN-10" value="Yes" style="edgeLabel;html=1;align=center;verticalAlign=middle;resizable=0;points=[];" vertex="1" connectable="0" parent="1t6ByZAMljNspa1cUEvN-9">
          <mxGeometry x="-0.1" y="1" relative="1" as="geometry">
            <mxPoint x="19" as="offset" />
          </mxGeometry>
        </mxCell>
        <mxCell id="1t6ByZAMljNspa1cUEvN-11" value="" style="edgeStyle=orthogonalEdgeStyle;rounded=0;orthogonalLoop=1;jettySize=auto;html=1;endArrow=block;endFill=0;endSize=8;" edge="1" parent="1" source="1t6ByZAMljNspa1cUEvN-13" target="1t6ByZAMljNspa1cUEvN-19">
          <mxGeometry relative="1" as="geometry" />
        </mxCell>
        <mxCell id="1t6ByZAMljNspa1cUEvN-12" value="No" style="edgeLabel;html=1;align=center;verticalAlign=middle;resizable=0;points=[];" vertex="1" connectable="0" parent="1t6ByZAMljNspa1cUEvN-11">
          <mxGeometry x="-0.2" y="-1" relative="1" as="geometry">
            <mxPoint y="-11" as="offset" />
          </mxGeometry>
        </mxCell>
        <mxCell id="1t6ByZAMljNspa1cUEvN-13" value="검수가 제대로&lt;br&gt;되었는가?" style="rhombus;whiteSpace=wrap;html=1;rounded=1;" vertex="1" parent="1">
          <mxGeometry x="210" y="440" width="100" height="80" as="geometry" />
        </mxCell>
        <mxCell id="1t6ByZAMljNspa1cUEvN-15" value="검수한 내용 업로드&lt;br&gt;(식물 로그 참고)" style="whiteSpace=wrap;html=1;rounded=1;" vertex="1" parent="1">
          <mxGeometry x="200" y="560" width="120" height="40" as="geometry" />
        </mxCell>
        <mxCell id="1t6ByZAMljNspa1cUEvN-23" style="edgeStyle=orthogonalEdgeStyle;rounded=0;orthogonalLoop=1;jettySize=auto;html=1;exitX=1;exitY=0.5;exitDx=0;exitDy=0;entryX=1;entryY=0.5;entryDx=0;entryDy=0;endArrow=block;endFill=0;endSize=8;" edge="1" parent="1" source="1t6ByZAMljNspa1cUEvN-19" target="1t6ByZAMljNspa1cUEvN-2">
          <mxGeometry relative="1" as="geometry" />
        </mxCell>
        <mxCell id="1t6ByZAMljNspa1cUEvN-19" value="검수 패널티" style="whiteSpace=wrap;html=1;rounded=1;" vertex="1" parent="1">
          <mxGeometry x="360" y="460" width="120" height="40" as="geometry" />
        </mxCell>
      </root>
    </mxGraphModel>
  </diagram>
  <diagram id="N255y_hGBdg5d1doktUe" name="가드닝 스케쥴러 페이지">
    <mxGraphModel dx="968" dy="994" grid="1" gridSize="10" guides="1" tooltips="1" connect="1" arrows="1" fold="1" page="1" pageScale="1" pageWidth="827" pageHeight="1169" math="0" shadow="0">
      <root>
        <mxCell id="0" />
        <mxCell id="1" parent="0" />
      </root>
    </mxGraphModel>
  </diagram>
</mxfile>
